<?xml version="1.0" encoding="UTF-8"?><svg width="32" height="32" viewBox="0 0 32 32" fill="none" xmlns="http://www.w3.org/2000/svg">
<path d="M15.1296 13.196H12.1728V16.1469H15.1296V13.196Z" fill="white"/>
<path d="M19.1744 20.7074H16.2176V23.6583H19.1744V20.7074Z" fill="white"/>
<path d="M15.1296 20.7074H12.1728V23.6583H15.1296V20.7074Z" fill="white"/>
<path d="M15.1296 16.9517H12.1728V19.9026H15.1296V16.9517Z" fill="white"/>
<path d="M11.0848 13.196H8.12799V16.1469H11.0848V13.196Z" fill="white"/>
<path d="M11.0592 11.1138H12.3072C12.3584 11.1138 12.3968 11.0754 12.3968 11.0243V9.20399V7.87545C12.3968 7.82435 12.3584 7.78603 12.3072 7.78603H11.0592C11.008 7.78603 10.9696 7.82435 10.9696 7.87545V9.20399V11.0243C10.9696 11.0691 11.008 11.1138 11.0592 11.1138Z" fill="white"/>
<path d="M11.0848 16.9517H8.12799V19.9026H11.0848V16.9517Z" fill="white"/>
<path d="M11.0848 20.8096H8.12799V23.7605H11.0848V20.8096Z" fill="white"/>
<path d="M23.2192 13.196H20.2624V16.1469H23.2192V13.196Z" fill="white"/>
<path d="M23.2192 16.9517H20.2624V19.9026H23.2192V16.9517Z" fill="white"/>
<path d="M19.1744 16.9517H16.2176V19.9026H19.1744V16.9517Z" fill="white"/>
<path d="M16.0192 0.172455C7.23837 0.172455 0.115173 7.27505 0.115173 16.0447C0.115173 24.8144 7.23837 31.917 16.0192 31.917C24.8 31.917 31.9232 24.808 31.9232 16.0447C31.9232 7.28144 24.8064 0.172455 16.0192 0.172455ZM25.3696 23.4411C25.3696 24.1948 24.7552 24.808 24 24.808H8.03837C7.28317 24.808 6.66877 24.1948 6.66877 23.4411V10.6731C6.66877 9.91936 7.28317 9.30619 8.03837 9.30619H9.71517V7.98403C9.71517 7.56886 9.90717 7.19202 10.2016 6.9493C10.2656 6.89182 10.3424 6.84711 10.4128 6.80239C10.4512 6.78323 10.4896 6.76407 10.528 6.74491C10.6496 6.69381 10.7776 6.66188 10.912 6.6491C10.9568 6.64271 11.0016 6.64271 11.0464 6.64271H12.2944C12.576 6.64271 12.832 6.72575 13.0432 6.87265C13.1776 6.96207 13.2928 7.07704 13.3888 7.21118C13.5424 7.42834 13.6384 7.69661 13.6384 7.99042V9.31896H18.5536V7.98403C18.5536 7.69661 18.6432 7.42834 18.8032 7.20479C18.8992 7.07066 19.0144 6.96207 19.1488 6.86627C19.3664 6.71936 19.6224 6.63633 19.8976 6.63633H21.1456C21.1904 6.63633 21.2352 6.63633 21.28 6.64271C21.4144 6.65549 21.5424 6.68742 21.664 6.73852C21.7024 6.75768 21.7408 6.77685 21.7792 6.79601C21.856 6.83433 21.9264 6.88543 21.9904 6.94291C22.2912 7.19201 22.4768 7.56247 22.4768 7.97764V9.30619H23.9744C24.7296 9.30619 25.344 9.91936 25.344 10.6731V23.4411H25.3696Z" fill="white"/>
<path d="M19.1744 13.196H16.2176V16.1469H19.1744V13.196Z" fill="white"/>
<path d="M23.2192 20.7074H20.2624V23.6583H23.2192V20.7074Z" fill="white"/>
<path d="M21.2544 11.0243V9.20399V7.87545C21.2544 7.82435 21.216 7.78603 21.1648 7.78603H19.9168C19.8656 7.78603 19.8272 7.82435 19.8272 7.87545V9.20399V11.0243C19.8272 11.0754 19.8656 11.1138 19.9168 11.1138H21.1648C21.2096 11.1138 21.2544 11.0691 21.2544 11.0243Z" fill="white"/>
</svg>
