<?xml version="1.0" encoding="UTF-8"?>
<svg id="Layer_1" xmlns="http://www.w3.org/2000/svg" version="1.1" xmlns:i="http://ns.adobe.com/AdobeIllustrator/10.0/" viewBox="0 0 72 72">
  <!-- Generator: Adobe Illustrator 29.8.2, SVG Export Plug-In . SVG Version: 2.1.1 Build 3)  -->
  <defs>
    <style>
      .st0 {
        fill: #197ba1;
      }
    </style>
  </defs>
  <path class="st0" d="M63.62,48.76l-1.6,5.5c.79.69,1.64,1.32,1.82,2.45s.18,5.16.02,6.36-1.32,2.46-2.52,2.69l-15.85.07c-1.59-.13-2.86-1.41-3.01-3-.12-1.35-.16-4.83.04-6.11.14-.89.76-1.72,1.55-2.12l-2.72-5.72-13.49-.13c-.31,2.67-1.32,5.16-2.17,7.68.89.74,1.7,1.42,1.83,2.66.14,1.32.16,4.83-.01,6.13-.19,1.49-1.52,2.62-2.99,2.75-4.88.45-10.43-.35-15.38,0-1.59-.14-2.86-1.41-3.01-3-.12-1.29-.15-6.02.35-7,.18-.35.66-.72.72-1.02.25-1.32,0-4.31-.36-5.64-.55-2.05-1.51-4-2.11-6.04-1.02-3.47-1.01-9.73-.74-13.41.13-1.83.96-3.78,2.42-4.92.59-.46,1.25-.67,1.84-1.1l.02-17.86c.15-1.95,1.37-3.45,3.26-3.95l52.69-.12c1.78.18,3.24,1.34,3.77,3.05.4,12.58.06,25.24.17,37.85-.22,2.36-2.16,4.02-4.52,3.96ZM63.87,46.6c1.15.02,2.11-.91,2.14-2.06V8.11c-.04-1.13-.94-2.03-2.07-2.07l-52.05.1c-.55.07-1.5,1.08-1.5,1.58v22.35c.7-.26,1.36-.57,2.14-.53V11.05c.21-1.52,1.46-2.75,3-2.87h45.46c.99.13,1.84.67,2.37,1.51.11.17.5.98.5,1.1v35.82ZM61.73,36.06V11.05c0-.31-.77-.86-1.13-.74H15.81c-.45-.02-.82.18-1.03.57l-.1,19.22c3.39,1.96,1.71,6.37,2.2,9.57l2.28,2.66h18.91c-1.03-2.06-2.55-4.27-.97-6.5,1.13-1.59,3.16-1.93,4.85-1.04,1.48.78,1.68,2.2,2.67,3.4v-8.67h-2.41c-.89,2.83-4.94,2.83-5.9.02-.95-.04-2.45.24-2.4-1.15.05-1.28,1.51-.97,2.4-1.02.96-2.81,5.01-2.81,5.9.02h2.41v-3.8c0-.07.21-.28.13-.47h-10.09c-.72,0-1.19-1.83.03-2.11l18.67-.02c1.33-3.57,6.58-2.31,6.23,1.39-.31,3.32-5.15,3.97-6.15.73h-2.54c-.08.19.13.4.13.47v3.8h7.82c.93,0,.93,2.13,0,2.13h-7.82v3.34c.96-.25,2.05-.18,2.87.4.23.16.75.87.93.89.19.02.96-.35,1.47-.36,1.44-.03,2.85.99,3.15,2.41.73-.4,1.49-.29,2.27-.13ZM56.08,21.01c-1.23.27-.96,2.42.61,2.08,1.23-.27.96-2.42-.61-2.08ZM59.84,54.05l1.88-6.46-.05-8.87c-.34-.93-1.83-.88-2.05.1-.17.76.34,2.17-.79,2.41-2.92.64.17-5.92-2.75-5.28-1.58.34-.18,4.02-1.03,4.98-.43.48-1.29.46-1.67-.07-.54-.75.03-4.08-.23-5.24-.24-1.05-1.92-1.04-2.1.11-.19,1.22.29,4.03-.11,4.96-.35.82-1.69.74-1.98-.09l-.07-16.61c-.19-1.24-2.06-1.16-2.13.12l-.1,18.71c-.35.66-1.26.79-1.77.24-1.19-1.75-2.07-3.96-3.28-5.66-1.34-1.88-3.44-.82-2.93,1.33l7.69,15.27,13.48.05ZM38.97,27.42c-1.23.27-.96,2.42.61,2.08,1.23-.27.96-2.42-.61-2.08ZM21.09,48.74c-.03.44.07.94-.03,1.37-.21.93-1.65,1.04-2.01.19-.44-1.02.19-3.39-.2-4.6-.53-1.62-3.86-4.19-4.15-5.47-.4-1.78.23-4.81-.04-6.76-.33-2.42-3.99-2.44-4.27.12-.24,2.21.23,4.76-.06,7.01-.32,1.04-2.08.61-2.08-.07v-12.21c-1.28.59-1.98,2.06-2.12,3.42-.3,2.9-.25,9.44.45,12.19.51,2.02,2.74,6.87,2.74,8.47v3.8h14.1c.84-2.45,1.98-4.85,2.21-7.47h-4.54ZM40.21,46.6l-1.14-2.13h-18.38c.19.72.53,1.36.4,2.13h19.12ZM45.38,56.24c-.58.18-.72.54-.77,1.1-.1,1.16-.16,4.39.01,5.47.06.38.3.67.65.82l15.45.06c.43-.01.78-.27.94-.66-.08-1.79.32-4.22.05-5.94-.06-.38-.3-.67-.65-.82l-15.68-.03ZM9.03,58.37c-.58.18-.72.54-.77,1.1-.1,1.16-.16,4.39.01,5.47.06.38.3.67.65.82l15.45.06c.43-.01.78-.27.94-.66-.08-1.79.32-4.22.05-5.94-.06-.38-.3-.67-.65-.82l-15.68-.03Z"/>
  <path class="st0" d="M29.65,20.45v3.74c1.21.02,1.5,1.58.41,2.07l-11.41.03c-1.19-.4-.97-2.08.31-2.11v-3.74c-1.07,1.17-2.71.26-1.93-1.2l6.62-5.54c.38-.29.94-.29,1.33,0l6.62,5.53c.77,1.45-.87,2.36-1.93,1.2ZM27.51,24.19v-5.54l-3.25-2.58-3.17,2.58v5.54h2.14v-2.47c0-.9,2.14-.9,2.14,0v2.47h2.14Z"/>
  <path class="st0" d="M42.23,14.56l16.36.02c1.35.13,1.35,2.01,0,2.14h-16.29c-1.09,2.8-4.95,2.87-5.98.02-.81-.07-2.23.27-2.38-.9-.19-1.48,1.38-1.27,2.38-1.28.98-2.8,4.93-2.82,5.92,0ZM38.97,14.61c-1.23.27-.96,2.42.61,2.08,1.23-.27.96-2.42-.61-2.08Z"/>
  <path class="st0" d="M47.53,59.44c1.57-.34,1.84,1.81.61,2.08-1.57.34-1.84-1.81-.61-2.08Z"/>
  <path class="st0" d="M11.17,61.57c1.57-.34,1.84,1.81.61,2.08-1.57.34-1.84-1.81-.61-2.08Z"/>
</svg>