<svg width="83" height="77" viewBox="0 0 83 77" fill="none" xmlns="http://www.w3.org/2000/svg">
<path d="M77.981 11.8883L26.979 11.9015L21.3565 2.30777C19.2519 -0.131427 16.1663 -0.67347 13.3221 0.855709C9.34774 2.99083 5.46114 6.67276 1.51748 8.99957C0.806439 9.63196 0.589176 10.9342 0.415805 11.8596C-1.94776 24.569 6.24022 42.3132 12.9732 52.8632C18.1656 61.0004 26.6981 71.5438 35.5971 75.5937C36.51 76.0102 38.7288 76.9268 39.6483 76.9929C40.2189 77.0348 40.4778 76.885 40.9694 76.7021C43.7368 75.6819 47.4083 73.7098 50.134 72.3525C52.638 71.1054 55.2122 70.2989 56.2437 67.4146C57.4595 64.0147 55.6885 61.7584 54.025 58.9909H77.9722C80.4148 58.9909 82.7498 56.6707 82.9912 54.28L83 16.7622C82.7652 14.019 80.7067 12.0447 77.9788 11.8883H77.981ZM74.6013 15.861L49.6775 32.8869L29.0112 18.7519C28.5832 18.2407 29.2899 16.6565 28.8444 15.861H74.6013ZM51.7799 67.0643L40.0016 72.7667C39.1304 72.9783 37.1026 71.9184 36.2489 71.4733C27.216 66.758 18.6506 55.1393 13.6754 46.3785C8.83421 37.8579 3.40043 25.0449 3.98638 15.1097C4.03905 14.2151 4.21681 12.0822 4.82471 11.4894C8.15608 9.42263 11.2768 6.84022 14.5752 4.75357C15.0076 4.48035 15.4487 4.09034 15.9666 4C17.0419 3.81491 17.9088 4.28424 18.5496 5.13036C20.2021 8.68228 23.0485 12.2034 24.6308 15.7156C25.1641 16.8967 25.2321 17.9323 24.2226 18.904C22.5328 20.5257 18.4926 21.861 16.772 23.4871C15.5628 24.6329 16.5306 27.1316 16.952 28.5484C19.3638 36.6812 25.6447 47.489 31.3945 53.7093C32.6125 55.027 34.1158 57.0078 36.0382 56.2168C38.1999 55.3266 41.4522 52.6781 43.5261 52.1669C44.7353 51.8695 45.5693 52.3498 46.2671 53.3193L52.5568 64.3541C52.9409 65.2619 52.5129 66.4583 51.7821 67.0665L51.7799 67.0643ZM79.0454 54.1191C79.0454 54.6303 77.7901 55.0865 77.3248 55.0358L51.9709 55.0292L51.6395 54.8661C50.3908 52.7244 49.4207 50.045 47.0967 48.8508C42.4947 46.4843 39.2862 50.4637 35.2613 51.9774C28.4581 44.6642 23.2723 35.5971 20.325 26.021L26.7573 21.9998L48.4464 36.9214C50.0967 38.1663 51.9182 36.3309 53.3249 35.401C62.0067 29.6721 70.3636 23.4122 79.0476 17.6811V54.1214L79.0454 54.1191Z" fill="white"/>
</svg>
