<svg width="58" height="58" viewBox="0 0 58 58" fill="none" xmlns="http://www.w3.org/2000/svg">
<path d="M57.6681 28.8446C57.6681 43.4124 46.8728 55.4559 32.8487 57.4102C31.5374 57.5921 30.1959 57.6871 28.8341 57.6871C27.2621 57.6871 25.7185 57.5618 24.2153 57.3193C10.4862 55.1083 0 43.2002 0 28.8446C0 12.9146 12.9108 0 28.8361 0C44.7614 0 57.6722 12.9146 57.6722 28.8446H57.6681Z" fill="white"/>
<path d="M32.8489 23.1613V29.4448H40.6196L39.3891 37.909H32.8489V57.4102C31.5376 57.5921 30.196 57.6871 28.8342 57.6871C27.2623 57.6871 25.7186 57.5618 24.2154 57.3193V37.909H17.0488V29.4448H24.2154V21.7567C24.2154 16.987 28.0806 13.1187 32.8509 13.1187V13.1227C32.865 13.1227 32.8772 13.1187 32.8913 13.1187L40.6216 13.1187V20.4389H35.5704C34.0692 20.4389 32.8509 21.6576 32.8509 23.1593L32.8489 23.1613Z" fill="#FC8D1E"/>
</svg>
