<svg width="58" height="58" viewBox="0 0 58 58" fill="none" xmlns="http://www.w3.org/2000/svg">
<path d="M28.9007 0L28.7694 0C12.8805 0 0 12.8843 0 28.7779L0 28.9092C0 44.8028 12.8805 57.6871 28.7694 57.6871H28.9007C44.7896 57.6871 57.6701 44.8028 57.6701 28.9092V28.7779C57.6701 12.8843 44.7896 0 28.9007 0Z" fill="white"/>
<path d="M37.7585 11.7363L19.9137 11.7363C14.9838 11.7363 10.9731 15.7481 10.9731 20.6795L10.9731 37.0097C10.9731 41.9411 14.9838 45.9529 19.9137 45.9529H37.7585C42.6884 45.9529 46.699 41.9411 46.699 37.0097V20.6795C46.699 15.7481 42.6884 11.7363 37.7585 11.7363ZM14.1271 20.6795C14.1271 17.4883 16.7234 14.8912 19.9137 14.8912L37.7585 14.8912C40.9488 14.8912 43.5451 17.4883 43.5451 20.6795V37.0097C43.5451 40.2009 40.9488 42.798 37.7585 42.798H19.9137C16.7234 42.798 14.1271 40.2009 14.1271 37.0097L14.1271 20.6795Z" fill="#FC8D1E"/>
<path d="M28.8363 37.1613C33.4207 37.1613 37.1525 33.4304 37.1525 28.8426C37.1525 24.2548 33.4227 20.5239 28.8363 20.5239C24.2498 20.5239 20.52 24.2548 20.52 28.8426C20.52 33.4304 24.2498 37.1613 28.8363 37.1613ZM28.8363 23.6808C31.6831 23.6808 33.9986 25.997 33.9986 28.8446C33.9986 31.6923 31.6831 34.0084 28.8363 34.0084C25.9894 34.0084 23.674 31.6923 23.674 28.8446C23.674 25.997 25.9894 23.6808 28.8363 23.6808Z" fill="#FC8D1E"/>
<path d="M37.9223 21.8675C39.1568 21.8675 40.163 20.863 40.163 19.6261C40.163 18.3892 39.1589 17.3848 37.9223 17.3848C36.6858 17.3848 35.6816 18.3892 35.6816 19.6261C35.6816 20.863 36.6858 21.8675 37.9223 21.8675Z" fill="#FC8D1E"/>
</svg>
