<svg width="58" height="58" viewBox="0 0 58 58" fill="none" xmlns="http://www.w3.org/2000/svg">
<path d="M57.5065 28.7617C57.5065 12.8771 44.6332 0 28.7533 0C12.8733 0 0 12.8771 0 28.7617C0 44.6464 12.8733 57.5234 28.7533 57.5234C44.6332 57.5234 57.5065 44.6464 57.5065 28.7617Z" fill="white"/>
<path d="M46.8587 22.8014C46.6324 20.6167 46.1455 18.2015 44.3533 16.9323C42.9653 15.948 41.1408 15.9116 39.4375 15.9136C35.8371 15.9136 32.2346 15.9197 28.6341 15.9217C25.171 15.9258 21.7079 15.9278 18.2449 15.9318C16.7982 15.9318 15.392 15.8207 14.0484 16.4472C12.8947 16.9848 11.9915 18.0075 11.448 19.1453C10.6944 20.7278 10.5368 22.5205 10.4459 24.2707C10.2782 27.4579 10.2964 30.6532 10.4964 33.8384C10.6439 36.1626 11.0177 38.7314 12.8139 40.2129C14.406 41.5245 16.6527 41.5892 18.7176 41.5912C25.272 41.5973 31.8285 41.6033 38.3849 41.6074C39.2254 41.6094 40.1023 41.5932 40.9589 41.5003C42.644 41.3184 44.2503 40.8353 45.3332 39.5863C46.4263 38.3272 46.7072 36.5749 46.8729 34.9157C47.2769 30.8897 47.2729 26.8254 46.8587 22.8014ZM24.8437 34.4043V23.1167L34.6147 28.7595L24.8437 34.4043Z" fill="#FC8D1E"/>
</svg>
