<svg width="58" height="58" viewBox="0 0 58 58" fill="none" xmlns="http://www.w3.org/2000/svg">
<path d="M57.6681 28.8446C57.6681 43.4124 46.8728 55.4559 32.8487 57.4102C31.5374 57.5921 30.1958 57.6871 28.8341 57.6871C27.2621 57.6871 25.7185 57.5618 24.2153 57.3193C10.4862 55.1083 0 43.2002 0 28.8446C0 12.9146 12.9108 0 28.8361 0C44.7614 0 57.6722 12.9146 57.6722 28.8446H57.6681Z" fill="white"/>
<path d="M11.6947 12.7227L24.9934 30.508L11.6118 44.9687H14.6243L26.341 32.3088L35.8069 44.9687H46.0567L32.0104 26.1829L44.4666 12.7227H41.4541L30.6648 24.3822L21.9465 12.7227H11.6967H11.6947ZM16.1235 14.9418H20.8312L41.6238 42.7496H36.9161L16.1235 14.9418Z" fill="#FC8D1E"/>
</svg>
