<svg width="58" height="58" viewBox="0 0 58 58" fill="none" xmlns="http://www.w3.org/2000/svg">
<path d="M28.9007 0L28.7694 0C12.8805 0 0 12.8843 0 28.7779L0 28.9093C0 44.8028 12.8805 57.6871 28.7694 57.6871H28.9007C44.7897 57.6871 57.6702 44.8028 57.6702 28.9093V28.7779C57.6702 12.8843 44.7897 0 28.9007 0Z" fill="white"/>
<path d="M13.7532 19.1738C12.9935 18.4685 12.6157 17.5954 12.6157 16.5566C12.6157 15.5178 12.9955 14.6062 13.7532 13.8989C14.5129 13.1935 15.4908 12.8398 16.689 12.8398C17.8871 12.8398 18.8266 13.1935 19.5843 13.8989C20.344 14.6042 20.7218 15.4915 20.7218 16.5566C20.7218 17.6217 20.342 18.4685 19.5843 19.1738C18.8246 19.8792 17.8608 20.2329 16.689 20.2329C15.5171 20.2329 14.5129 19.8792 13.7532 19.1738ZM20.0834 23.22L20.0834 44.8454H13.2521L13.2521 23.22H20.0834Z" fill="#FC8D1E"/>
<path d="M42.8239 25.3559C44.3129 26.9728 45.0565 29.1919 45.0565 32.0174V44.4631H38.5688V32.8945C38.5688 31.4697 38.1991 30.3621 37.4616 29.5739C36.7241 28.7857 35.7301 28.3896 34.4854 28.3896C33.2408 28.3896 32.2467 28.7837 31.5093 29.5739C30.7718 30.3621 30.402 31.4697 30.402 32.8945L30.402 44.4631H23.876L23.876 23.159H30.402V25.9845C31.0627 25.0427 31.9538 24.2989 33.0731 23.7512C34.1925 23.2035 35.4512 22.9307 36.8514 22.9307C39.3447 22.9307 41.3368 23.7391 42.8239 25.3539V25.3559Z" fill="#FC8D1E"/>
</svg>
