<?xml version="1.0" encoding="UTF-8"?><svg width="32" height="32" viewBox="0 0 32 32" fill="none" xmlns="http://www.w3.org/2000/svg">
<path d="M16.0192 0.172455C24.8 0.172455 31.9232 7.28144 31.9232 16.0447C31.9232 24.808 24.8 31.917 16.0192 31.917C7.23839 31.917 0.115196 24.808 0.115196 16.0447C0.115196 7.28144 7.23839 0.172455 16.0192 0.172455ZM26.8736 20.5669L23.8784 17.5776C22.8096 16.511 20.992 16.9389 20.5632 18.3249C20.2432 19.283 19.1744 19.8196 18.208 19.6088C16.0704 19.0723 13.1776 16.3002 12.6464 14.0583C12.3264 13.1002 12.9664 12.0271 13.9328 11.7078C15.3216 11.2798 15.7504 9.46587 14.6816 8.3992L11.6864 5.40998C10.8288 4.66267 9.54879 4.66267 8.79999 5.40998L6.76479 7.44112C4.72959 9.57445 6.97599 15.2335 12.0064 20.2539C17.0368 25.2742 22.7072 27.6184 24.8448 25.485L26.88 23.4539C27.6224 22.598 27.6224 21.3142 26.8736 20.5669Z" fill="white"/>
</svg>
